<svg width="17" height="16" viewBox="0 0 17 16" fill="none" xmlns="http://www.w3.org/2000/svg">
<g id="Icon (heroicons-mini) https://heroicons.com/">
<path id="Vector (Stroke)" fill-rule="evenodd" clip-rule="evenodd" d="M13.581 11.8159C13.3513 12.0547 12.9715 12.0622 12.7326 11.8325L9.13261 8.4325C9.01496 8.31938 8.94847 8.16321 8.94847 8C8.94847 7.83679 9.01496 7.68062 9.13261 7.5675L12.7326 4.1675C12.9715 3.93782 13.3513 3.94527 13.581 4.18413C13.8106 4.423 13.8032 4.80282 13.5643 5.0325L10.4141 8L13.5643 10.9675C13.8032 11.1972 13.8106 11.577 13.581 11.8159ZM8.78097 11.8159C8.5513 12.0547 8.17147 12.0622 7.93261 11.8325L4.33261 8.4325C4.21496 8.31938 4.14847 8.16321 4.14847 8C4.14847 7.83679 4.21496 7.68062 4.33261 7.5675L7.93261 4.1675C8.17147 3.93782 8.5513 3.94527 8.78097 4.18413C9.01065 4.423 9.0032 4.80282 8.76434 5.0325L5.61414 8L8.76434 10.9675C9.0032 11.1972 9.01065 11.577 8.78097 11.8159Z" fill="#626262"/>
</g>
</svg>
